PathFileType	4	(X/Y/Z)	P:\Projects\LMB_grand_challenge_database\project_only\opensim\experimental_data\SixthCompetition/DM_smooth1_new.trc
DataRate	CameraRate	NumFrames	NumMarkers	Units	OrigDataRate	OrigDataStartFrame	OrigNumFrames
120	120	4	68	mm	120	92	370
Frame#	Time	Sternum			Neck			R_Shoulder			L_Shoulder			Xiphoid			Thoracic			R_Asis			L_Asis			R_Psis			L_Psis			Lumbar			R_Elbow			R_ElbowMedial			R_ShoulderAnterior			R_ShoulderPosterior			R_Wrist			R_Radius			R_Ulna			L_Elbow			L_ElbowMedial			L_ShoulderAnterior			L_ShoulderPosterior			L_Wrist			L_Ulna			L_Radius			L_Thigh_Superior			L_Thigh_Inferior			L_Thigh_Lateral			L_Knee_Lateral			L_Knee_Medial			L_Patella			L_Shank_Superior			L_Shank_Inferior			L_Shank_Lateral			L_Ankle_Lateral			L_Ankle_Medial			R_Thigh_Superior			R_Thigh_Inferior			R_Thigh_Lateral			R_Knee_Lateral			R_Knee_Medial			R_Patella			R_Shank_Superior			R_Shank_Inferior			R_Shank_Lateral			R_Ankle_Lateral			RankleMedial			R_Heel			R_Toe			R_Midfoot_Medial			R_Midfoot_Lateral			R_Hindfoot			R_Midfoot_Superior			R_ToeMedial			R_ToeLateral			L_Heel			L_Toe			L_Midfoot_Medial			L_Midfoot_Lateral			L_Hindfoot			L_Midfoot_Superior			L_ToeMedial			L_ToeLateral			Oglobal			Sacral			Xglobal			Yglobal			Zglobal			
		X1	Y1	Z1	X2	Y2	Z2	X3	Y3	Z3	X4	Y4	Z4	X5	Y5	Z5	X6	Y6	Z6	X7	Y7	Z7	X8	Y8	Z8	X9	Y9	Z9	X10	Y10	Z10	X11	Y11	Z11	X12	Y12	Z12	X13	Y13	Z13	X14	Y14	Z14	X15	Y15	Z15	X16	Y16	Z16	X17	Y17	Z17	X18	Y18	Z18	X19	Y19	Z19	X20	Y20	Z20	X21	Y21	Z21	X22	Y22	Z22	X23	Y23	Z23	X24	Y24	Z24	X25	Y25	Z25	X26	Y26	Z26	X27	Y27	Z27	X28	Y28	Z28	X29	Y29	Z29	X30	Y30	Z30	X31	Y31	Z31	X32	Y32	Z32	X33	Y33	Z33	X34	Y34	Z34	X35	Y35	Z35	X36	Y36	Z36	X37	Y37	Z37	X38	Y38	Z38	X39	Y39	Z39	X40	Y40	Z40	X41	Y41	Z41	X42	Y42	Z42	X43	Y43	Z43	X44	Y44	Z44	X45	Y45	Z45	X46	Y46	Z46	X47	Y47	Z47	X48	Y48	Z48	X49	Y49	Z49	X50	Y50	Z50	X51	Y51	Z51	X52	Y52	Z52	X53	Y53	Z53	X54	Y54	Z54	X55	Y55	Z55	X56	Y56	Z56	X57	Y57	Z57	X58	Y58	Z58	X59	Y59	Z59	X60	Y60	Z60	X61	Y61	Z61	X62	Y62	Z62	X63	Y63	Z63	X64	Y64	Z64	X65	Y65	Z65	X66	Y66	Z66	X67	Y67	Z67	X68	Y68	Z68	

93	1.866667	-669.307	1374.71	196.635	-836.044	1440.39	218.652	-712.9160000000001	1387.08	376.685	-777.072	1399.56	28.3411	-643.4109999999999	1202.5	199.852	-914.61	1255.71	210.418	-728.1849999999999	975.237	340.547	-723.341	962.462	63.7142	-930.16	1010.11	228.112	-928.881	1007.18	150.132	-926.498	1058.12	188.631	-680.2670000000001	1071.94	474.285	-0	0	0	-0	0	0	-0	0	0	-563.135	819.275	445.654	-569.878	825.8049999999999	402.334	-606.576	814.186	462.453	-871.74	1075.19	-66.45480000000001	-0	0	0	-0	0	0	-0	0	0	-859.5839999999999	805.265	-54.7971	-900.412	824.4589999999999	-76.72880000000001	-867.056	823.127	-11.3703	-763.724	794.787	17.5054	-656.398	595.434	53.2612	-644.405	691.712	78.1283	-0	0	0	-0	0	0	-576.134	542.063	119.285	-627.443	460.924	50.9409	-543.807	200.791	41.2477	-542.874	335.698	112.728	-0	0	0	-0	0	0	-827.905	787.938	351.886	-867.415	577.49	308.833	-772.934	688.874	333.3	-0	0	0	-0	0	0	-811.273	475.236	232.866	-955.799	394.647	308.308	-1020.32	197.583	283.257	-918.777	300.433	221.018	-0	0	0	-0	0	0	-1138.26	78.6078	221.922	-841.48	46.1923	243.667	-917.624	25.9299	185.04	-936.665	23.3322	300.725	-1045.61	33.4912	280.739	-969.575	118.815	237.39	-871.912	35.3347	198.817	-886.02	37.1653	289.218	-555.005	58.1502	94.5609	-284.528	178.103	58.0673	-341.096	127.252	119.773	-362.293	116.27	7.80792	-454.464	66.1842	26.4955	-430.544	180.342	71.4571	-304.144	145.064	103.271	-316.096	145.532	9.59858	-0	0	0	-929.52	1008.65	189.122	-200	0	0	-0	0	200	-0	200	0	
94	1.875	-659.7	1373.43	195.794	-826.492	1438.99	217.906	-703.051	1385.83	375.901	-767.687	1398.09	27.6718	-634.042	1201.08	199.412	-904.977	1254.35	209.542	-719.361	974.264	340.726	-713.076	960.932	63.6291	-920.726	1008.82	227.109	-918.997	1005.72	149.099	-916.921	1056.75	187.467	-670.475	1070.44	473.472	-0	0	0	-0	0	0	-0	0	0	-551.861	818.441	444.18	-558.2670000000001	825.0599999999999	400.991	-595.5	813.228	461.079	-864.568	1074.29	-66.22020000000001	-0	0	0	-0	0	0	-0	0	0	-855.755	804.165	-55.4874	-896.231	824.057	-77.3031	-861.8200000000001	822.139	-12.1545	-755.432	792.592	17.4901	-644.841	594.17	54.4561	-636.385	687.852	78.1647	-0	0	0	-0	0	0	-567.5	543.529	121.416	-616.454	459.801	51.7433	-527.788	201.47	42.784	-529.149	336.385	113.387	-0	0	0	-0	0	0	-819.8049999999999	787.2569999999999	351.886	-862.186	577.294	309.62	-765.89	687.628	333.335	-0	0	0	-0	0	0	-806.332	474.159	233.409	-951.979	395.097	308.463	-1018.63	198.674	283.582	-915.866	300.308	221.376	-0	0	0	-0	0	0	-1137.42	80.4571	222.079	-841.375	45.6711	243.527	-917.25	25.9429	185.066	-936.356	23.0668	300.734	-1045.11	34.3075	280.754	-968.533	119.053	237.745	-871.689	35.2169	198.696	-885.821	36.8778	289.215	-534.448	57.7103	98.5964	-268.316	184.737	58.3843	-322.224	133.197	119.34	-345.293	121.174	7.85248	-435.815	68.5004	28.747	-414.317	183.257	72.6794	-286.905	150.745	104.233	-299.228	151.071	10.125	-0	0	0	-919.862	1007.27	188.104	-200	0	0	-0	0	200	-0	200	0	
95	1.883333	-650.239	1372.12	194.732	-816.919	1437.72	217.092	-693.26	1384.74	375.072	-758.194	1396.58	26.8494	-624.402	1199.91	198.763	-895.359	1253.03	208.624	-710.4690000000001	973.478	340.686	-702.937	959.191	63.7238	-911.3390000000001	1007.55	226.055	-909.2	1004.26	148.21	-907.3579999999999	1055.39	186.284	-660.545	1068.84	472.01	-0	0	0	-0	0	0	-0	0	0	-541.095	817.698	442.895	-547.126	824.057	399.764	-584.5069999999999	812.101	459.501	-857.441	1073.53	-66.49930000000001	-0	0	0	-0	0	0	-0	0	0	-851.294	803.021	-56.2751	-891.66	823.369	-77.6559	-856.783	821.088	-13.0143	-746.016	790.647	18.0824	-634.35	594.577	56.4854	-626.557	686.799	78.9054	-0	0	0	-0	0	0	-557.5839999999999	544.492	122.576	-605.7569999999999	458.59	52.3727	-513.096	201.511	44.5139	-515.897	336.948	114.159	-0	0	0	-0	0	0	-811.7140000000001	786.694	351.957	-856.658	577.316	309.565	-758.836	686.518	333.67	-0	0	0	-0	0	0	-801.059	473.041	233.913	-948.109	395.76	308.773	-1016.67	199.939	283.9	-912.324	300.345	221.585	-0	0	0	-0	0	0	-1136.55	82.5391	222.265	-840.941	45.3476	243.44	-916.9450000000001	25.7341	185.357	-936.1660000000001	22.9439	301.008	-1044.95	35.2887	280.967	-967.396	119.303	238.083	-871.49	34.9516	198.567	-885.644	36.7033	289.13	-518.124	58.6892	100.445	-253.316	189.121	59.0547	-307.18	137.309	122.564	-328.589	122.9	11.0282	-418.983	69.2428	31.8211	-399.262	185.288	73.74850000000001	-271.434	155.769	105.399	-283.994	154.187	11.2956	-0	0	0	-910.269	1005.91	187.132	-200	0	0	-0	0	200	-0	200	0	
96	1.891667	-640.5700000000001	1371.02	193.665	-807.279	1436.41	216.195	-683.285	1383.76	374.076	-748.7190000000001	1395.21	25.8481	-614.717	1198.6	198.186	-885.734	1251.75	207.699	-700.907	972.385	340.264	-692.571	957.739	63.7432	-901.527	1006.26	225.132	-899.203	1002.9	147.268	-897.367	1054.04	185.371	-650.673	1067.72	470.957	-0	0	0	-0	0	0	-0	0	0	-530.067	816.816	441.854	-536.349	823.2089999999999	398.376	-573.735	811.136	458.069	-850.2430000000001	1072.85	-66.6875	-0	0	0	-0	0	0	-0	0	0	-846.659	801.851	-56.9478	-886.521	823.1130000000001	-78.1748	-851.5700000000001	820.277	-13.7972	-735.367	789.27	18.7389	-623.644	595.332	58.4871	-615.991	688.866	79.8075	-0	0	0	-0	0	0	-548.626	544.384	123.185	-594.741	457.172	52.8464	-499.818	200.955	46.4778	-502.862	337.288	114.977	-0	0	0	-0	0	0	-803.689	786.282	352.118	-850.631	577.252	310.017	-751.4109999999999	685.259	333.708	-0	0	0	-0	0	0	-795.622	471.883	234.62	-943.914	396.45	309.096	-1014.5	201.327	284.222	-909.162	300.107	222.318	-0	0	0	-0	0	0	-1135.62	84.8897	222.6	-840.604	44.7459	243.497	-916.674	25.7416	185.442	-935.941	22.6303	301.077	-1044.56	36.3032	281.102	-966.201	119.605	238.588	-871.24	34.6568	198.434	-885.418	36.3997	289.204	-502.976	58.6601	104.092	-240.004	191.87	60.1494	-293.065	140.383	124.742	-314.355	123.872	13.4752	-404.3	69.23950000000001	35.3582	-385.901	186.237	75.2522	-257.667	159.543	107.586	-269.829	155.396	13.1106	-0	0	0	-900.365	1004.58	186.2	-200	0	0	-0	0	200	-0	200	0	
